<svg version="1.1" baseProfile="basic" id="Layer_1"
	 xmlns="http://www.w3.org/2000/svg" xmlns:xlink="http://www.w3.org/1999/xlink" x="0px" y="0px" viewBox="0 0 47.23 20"
	 xml:space="preserve" fill="white">
<g>
	<path d="M0,10.52V9.48l6.89-4l0.64,1.25L1.81,10l5.72,3.27l-0.64,1.25L0,10.52z"/>
	<path d="M10.63,20H9.22l4.7-20h1.41L10.63,20z"/>
	<path d="M18.78,17.65h-1.65V2.35h3.55c1.22,0,2.15,0.29,2.79,0.87c0.64,0.58,0.95,1.39,0.95,2.42v3.29c0,1.6-0.69,2.62-2.07,3.06
		l2.9,5.65h-1.81l-2.75-5.41h-1.91V17.65z M22.79,8.94V5.65c0-0.6-0.18-1.06-0.54-1.39c-0.36-0.33-0.88-0.49-1.55-0.49h-1.91v7.06
		h1.91C22.09,10.82,22.79,10.2,22.79,8.94z"/>
	<path d="M33.07,17.65H30.6L27.14,2.35h1.65l3.04,13.48l3.06-13.48h1.65L33.07,17.65z"/>
	<path d="M47.23,9.48v1.03l-6.89,4l-0.64-1.25L45.42,10L39.7,6.73l0.64-1.25L47.23,9.48z"/>
</g>
</svg>
