<svg version="1.1" baseProfile="basic" id="Layer_1"
	 xmlns="http://www.w3.org/2000/svg" xmlns:xlink="http://www.w3.org/1999/xlink" x="0px" y="0px" viewBox="0 0 55.2 20"
	 xml:space="preserve" fill="white">
<g>
	<path d="M0,10.68V9.32l9.01-5.23l0.83,1.63L2.37,10l7.48,4.28l-0.83,1.63L0,10.68z"/>
	<path d="M18,20h-2.15V0h4.65c1.6,0,2.81,0.38,3.65,1.14c0.83,0.76,1.25,1.82,1.25,3.17v4.31c0,2.09-0.9,3.43-2.71,4L26.46,20h-2.37
		l-3.6-7.08H18V20z M23.23,8.62V4.31c0-0.78-0.24-1.38-0.71-1.82c-0.47-0.43-1.15-0.65-2.03-0.65H18v9.23h2.49
		C22.32,11.08,23.23,10.26,23.23,8.62z"/>
	<path d="M36.68,20h-3.23L28.92,0h2.15l3.97,17.63l4-17.63h2.15L36.68,20z"/>
	<path d="M55.2,9.32v1.35l-9.02,5.23l-0.83-1.63L52.83,10l-7.48-4.28l0.83-1.63L55.2,9.32z"/>
</g>
</svg>
